<?xml version="1.0" encoding="UTF-8" ?>
<!DOCTYPE svg PUBLIC "-//W3C//DTD SVG 1.1//EN" "http://www.w3.org/Graphics/SVG/1.1/DTD/svg11.dtd">
<svg width="26pt" height="26pt" viewBox="0 0 26 26" version="1.1" xmlns="http://www.w3.org/2000/svg">
<path fill="none" d=" M 0.00 0.00 L 26.00 0.00 L 26.00 26.00 L 0.00 26.00 L 0.00 0.00 Z" />
<path fill="#9b59b6" d=" M 8.28 1.45 C 16.72 -2.40 27.15 5.89 25.14 14.93 C 24.20 22.23 16.01 27.06 9.13 24.67 C 3.08 22.91 -0.72 16.02 0.94 9.95 C 1.81 6.14 4.68 2.91 8.28 1.45 Z" />
<path fill="#ffffff" d=" M 13.16 7.61 C 15.58 9.07 17.58 11.06 19.67 12.93 C 17.64 14.91 15.51 16.78 13.11 18.30 C 13.06 17.48 12.97 15.84 12.93 15.01 C 10.98 14.98 9.03 14.95 7.08 14.92 C 7.11 13.65 7.10 12.38 7.05 11.10 C 9.00 11.06 10.96 10.99 12.91 10.97 C 12.97 10.13 13.10 8.45 13.16 7.61 Z" />
</svg>
