<?xml version="1.0" encoding="UTF-8" ?>
<!DOCTYPE svg PUBLIC "-//W3C//DTD SVG 1.1//EN" "http://www.w3.org/Graphics/SVG/1.1/DTD/svg11.dtd">
<svg width="26pt" height="26pt" viewBox="0 0 26 26" version="1.1" xmlns="http://www.w3.org/2000/svg">
<path fill="none" d=" M 0.00 0.00 L 26.00 0.00 L 26.00 26.00 L 0.00 26.00 L 0.00 0.00 Z" />
<path fill="#95a5a6" d=" M 8.29 1.50 C 14.61 -1.17 22.81 2.29 24.73 9.00 C 27.93 16.55 21.11 25.98 12.93 25.27 C 5.95 25.66 -0.28 18.94 0.71 12.02 C 0.91 7.42 4.00 3.14 8.29 1.50 Z" />
<path fill="#ffffff" d=" M 7.48 9.87 C 8.25 9.04 9.03 8.22 9.82 7.41 C 10.88 8.32 11.93 9.23 12.99 10.13 C 14.07 9.25 15.15 8.35 16.23 7.46 C 17.00 8.26 17.76 9.07 18.50 9.89 C 17.63 10.92 16.75 11.94 15.88 12.97 C 16.77 14.05 17.66 15.12 18.56 16.19 C 17.77 16.99 16.97 17.78 16.16 18.56 C 15.11 17.66 14.06 16.77 13.01 15.87 C 11.95 16.74 10.89 17.61 9.83 18.48 C 9.04 17.76 8.27 17.02 7.51 16.26 C 8.36 15.19 9.25 14.14 9.95 12.95 C 9.31 11.79 8.34 10.85 7.48 9.87 Z" />
</svg>
