<?xml version="1.0" encoding="UTF-8" standalone="no"?>
<svg
   xmlns:dc="http://purl.org/dc/elements/1.1/"
   xmlns:cc="http://creativecommons.org/ns#"
   xmlns:rdf="http://www.w3.org/1999/02/22-rdf-syntax-ns#"
   xmlns:svg="http://www.w3.org/2000/svg"
   xmlns="http://www.w3.org/2000/svg"
   xmlns:sodipodi="http://sodipodi.sourceforge.net/DTD/sodipodi-0.dtd"
   xmlns:inkscape="http://www.inkscape.org/namespaces/inkscape"
   width="26pt"
   height="26pt"
   viewBox="0 0 26 26"
   version="1.1"
   id="svg4161"
   inkscape:version="0.48.4 r9939"
   sodipodi:docname="circle_cancel.svg">
  <metadata
     id="metadata4173">
    <rdf:RDF>
      <cc:Work
         rdf:about="">
        <dc:format>image/svg+xml</dc:format>
        <dc:type
           rdf:resource="http://purl.org/dc/dcmitype/StillImage" />
        <dc:title></dc:title>
      </cc:Work>
    </rdf:RDF>
  </metadata>
  <defs
     id="defs4171" />
  <sodipodi:namedview
     pagecolor="#ffffff"
     bordercolor="#666666"
     borderopacity="1"
     objecttolerance="10"
     gridtolerance="10"
     guidetolerance="10"
     inkscape:pageopacity="0"
     inkscape:pageshadow="2"
     inkscape:window-width="1600"
     inkscape:window-height="848"
     id="namedview4169"
     showgrid="false"
     inkscape:zoom="41.077465"
     inkscape:cx="16.308442"
     inkscape:cy="15.33245"
     inkscape:window-x="-8"
     inkscape:window-y="1042"
     inkscape:window-maximized="1"
     inkscape:current-layer="svg4161" />
  <path
     fill="none"
     d=" M 0.00 0.00 L 26.00 0.00 L 26.00 26.00 L 0.00 26.00 L 0.00 0.00 Z"
     id="path4163" />
  <path
     fill="#95a5a6"
     d=" M 8.29 1.50 C 14.61 -1.17 22.81 2.29 24.73 9.00 C 27.93 16.55 21.11 25.98 12.93 25.27 C 5.95 25.66 -0.28 18.94 0.71 12.02 C 0.91 7.42 4.00 3.14 8.29 1.50 Z"
     id="path4165"
     style="fill:#ff0000" />
  <path
     d="M 7.48,9.87 C 8.25,9.04 9.03,8.22 9.82,7.41 c 1.06,0.91 2.11,1.82 3.17,2.72 1.08,-0.88 2.16,-1.78 3.24,-2.67 0.77,0.8 1.53,1.61 2.27,2.43 -0.87,1.03 -1.75,2.05 -2.62,3.08 0.89,1.08 1.78,2.15 2.68,3.22 -0.79,0.8 -1.59,1.59 -2.4,2.37 -1.05,-0.9 -2.1,-1.79 -3.15,-2.69 -1.06,0.87 -2.12,1.74 -3.18,2.61 C 9.04,17.76 8.27,17.02 7.51,16.26 8.3049153,15.121144 9.0709746,14.112458 9.95,12.95 9.0431448,11.926183 8.311788,10.99106 7.48,9.87 z"
     id="path4167"
     inkscape:connector-curvature="0"
     style="fill:#ffffff"
     sodipodi:nodetypes="ccccccccccccc" />
</svg>
