<?xml version="1.0" encoding="UTF-8" ?>
<!DOCTYPE svg PUBLIC "-//W3C//DTD SVG 1.1//EN" "http://www.w3.org/Graphics/SVG/1.1/DTD/svg11.dtd">
<svg width="26pt" height="26pt" viewBox="0 0 26 26" version="1.1" xmlns="http://www.w3.org/2000/svg">
<path fill="none" d=" M 0.00 0.00 L 26.00 0.00 L 26.00 26.00 L 0.00 26.00 L 0.00 0.00 Z" />
<path fill="#f39c12" d=" M 10.11 1.20 C 18.22 -1.11 26.74 6.76 24.96 15.02 C 23.93 24.17 11.39 28.55 4.89 22.03 C -2.38 16.14 0.89 2.94 10.11 1.20 Z" />
<path fill="#fffffe" d=" M 10.41 4.54 C 14.71 3.18 19.45 5.49 21.33 9.52 C 24.89 16.08 16.52 24.36 9.92 21.47 C 5.94 19.92 3.40 15.31 4.37 11.11 C 5.03 8.07 7.46 5.49 10.41 4.54 Z" />
<path fill="#f39c12" d=" M 12.60 11.68 C 14.42 10.21 15.83 8.07 18.29 7.60 C 17.72 10.70 15.08 12.70 13.25 15.06 C 11.63 14.17 9.81 13.89 7.99 13.80 C 8.00 13.39 8.02 12.58 8.03 12.17 C 9.56 12.04 11.11 12.05 12.60 11.68 Z" />
</svg>
