<?xml version="1.0" encoding="UTF-8" ?>
<!DOCTYPE svg PUBLIC "-//W3C//DTD SVG 1.1//EN" "http://www.w3.org/Graphics/SVG/1.1/DTD/svg11.dtd">
<svg width="26pt" height="26pt" viewBox="0 0 26 26" version="1.1" xmlns="http://www.w3.org/2000/svg">
<path fill="none" d=" M 0.00 0.00 L 26.00 0.00 L 26.00 26.00 L 0.00 26.00 L 0.00 0.00 Z" />
<path fill="#27ae60" d=" M 8.30 1.51 C 15.34 -1.59 24.40 3.32 25.22 11.07 C 27.09 19.41 18.06 27.67 9.93 24.99 C 3.84 23.67 -0.47 17.12 0.80 11.01 C 1.35 6.79 4.34 3.04 8.30 1.51 Z" />
<path fill="#ffffff" d=" M 11.20 13.71 C 13.44 11.68 15.63 9.60 17.77 7.47 C 18.35 7.96 19.50 8.94 20.07 9.43 C 17.56 12.66 14.39 15.28 11.66 18.31 C 9.51 16.83 7.68 14.96 5.97 13.01 C 6.89 12.32 7.80 11.60 8.68 10.86 C 9.52 11.81 10.36 12.76 11.20 13.71 Z" />
</svg>
